<?xml version="1.0" encoding="utf-8" ?><svg xmlns="http://www.w3.org/2000/svg" xmlns:xlink="http://www.w3.org/1999/xlink" width="1792" height="1024" viewBox="0 0 1792 1024"><path fill="#542EB1" transform="scale(1.33333 1.33333)" d="M414.141 291.726C456.253 290.922 491.478 298.949 521.753 330.581C537.848 347.397 550.591 369.6 550.526 393.53C550.457 418.838 531.593 432.413 514.988 448.247C500.557 433.341 482.926 422.796 479.821 400.728C476.674 378.363 488.199 355.407 500.847 337.934L511.828 349.167C499.339 365.074 489.086 390.393 499.695 409.665C503.59 416.741 508.939 421.545 514.94 426.712C539.385 406.316 539.951 385.387 524.523 358.661C510.128 333.723 484.26 317.477 456.607 310.552C467.115 328.622 471.883 345.33 470.327 366.465C469.816 373.414 468.022 380.871 467.648 387.704C465.864 420.357 492.435 429.417 508.998 448.754C510.894 450.961 513.052 453.968 514.85 456.329C527.926 437.988 545.741 429.748 557.14 411.46C567.837 394.3 557.591 373.477 559.288 354.24C560.835 336.686 564.597 326.387 572.982 310.733C554.559 315.116 544.283 319.356 529.459 331.553L518.443 319.844C546.459 297.004 579.577 289.899 615.119 291.976C587.443 305.627 573.664 332.203 575.346 362.811C576.438 382.68 582.853 399.081 571.945 417.882C554.171 448.519 523.956 452.851 514.791 491.119C505.322 455.077 482.032 450.891 461.714 424.477C440.126 396.412 462.423 365.178 450.857 334.023C443.202 313.405 433.821 301.938 414.141 291.726Z"/><path fill="#542EB1" transform="scale(1.33333 1.33333)" d="M799.743 358.536C816.65 354.887 833.313 365.642 836.954 382.554C840.596 399.467 829.837 416.129 812.927 419.765C796.026 423.399 779.379 412.645 775.74 395.742C772.1 378.838 782.845 362.183 799.743 358.536ZM808.582 407.376C830.395 401.744 827.621 371.516 805.065 371.115C783.962 373.513 782.436 406.716 808.582 407.376Z"/><path fill="#542EB1" transform="scale(1.33333 1.33333)" d="M871.108 358.66C882.05 356.031 893.56 359.483 901.252 367.699C908.943 375.915 911.63 387.63 908.289 398.378C904.948 409.126 896.093 417.251 885.1 419.656C868.343 423.322 851.759 412.808 847.923 396.085C844.087 379.362 854.43 362.668 871.108 358.66ZM881.332 407.168C903.306 400.45 897.908 370.176 876.524 371.045C873.79 371.553 871.966 372.003 869.516 373.481C858.586 380.072 858.443 397.947 869.259 404.739C873.415 407.349 876.481 407.23 881.332 407.168Z"/><path fill="#542EB1" transform="scale(1.33333 1.33333)" d="M711.558 359.821L726.077 359.782C719.796 375.581 712.866 391.729 706.325 407.464C703.184 414.94 699.853 424.551 695.45 431.214C687.536 443.192 672.203 443.392 661.053 435.552C662.565 432.293 664.481 428.646 666.102 425.395C676.425 430.268 681.895 429.761 686.96 419.293C680.148 402.634 672.307 386.408 665.388 369.793C664.053 366.587 662.618 363.401 661.626 360.068C665.863 359.761 672.161 359.988 676.584 360.035C681.808 373.693 688.633 389.14 694.374 402.652C700.271 388.753 705.935 373.895 711.558 359.821Z"/><path fill="#542EB1" transform="scale(1.33333 1.33333)" d="M638.457 337.043L653.005 336.721L653.052 418.29L638.467 418.572L638.457 337.043Z"/><path fill="#542EB1" transform="scale(1.33333 1.33333)" d="M766.767 358.652C767.977 358.739 767.892 358.777 768.854 359.544C769.663 362.963 769.432 368.655 769.43 372.334C758.406 372.561 749.341 375.205 748.636 388.37C748.115 398.1 748.644 408.439 748.733 418.236L734.263 418.261L734.172 412.39C734.004 394.889 733.986 377.387 734.12 359.886L748.502 359.773L748.472 368.946C754.774 361.546 757.202 359.744 766.767 358.652Z"/></svg>